<?xml version="1.0" encoding="UTF-8"?>
<svg version="1.1" xmlns="http://www.w3.org/2000/svg" width="16" height="16">
<path d="M0 0 C0.99 0.33 1.98 0.66 3 1 C4.33568021 0.67619874 5.66923011 0.34342449 7 0 C7.66 0.33 8.32 0.66 9 1 C9 3.97 9 6.94 9 10 C3.72 10 -1.56 10 -7 10 C-7 6 -7 6 -5.57421875 4.26171875 C-4.64029297 3.48248047 -4.64029297 3.48248047 -3.6875 2.6875 C-2.76517578 1.88892578 -2.76517578 1.88892578 -1.82421875 1.07421875 C-0.92123047 0.54248047 -0.92123047 0.54248047 0 0 Z M0 3 C-0.99 3.99 -1.98 4.98 -3 6 C-1.10820797 6.6814823 -1.10820797 6.6814823 1 7 C1.66 6.34 2.32 5.68 3 5 C2.01 4.34 1.02 3.68 0 3 Z " fill="#FDFDFA" transform="translate(7,3)"/>
<path d="M0 0 C0 1.98 0 3.96 0 6 C-0.66 6 -1.32 6 -2 6 C-2 4.68 -2 3.36 -2 2 C-3.32 2.33 -4.64 2.66 -6 3 C-6 2.01 -6 1.02 -6 0 C-3.50907189 -1.24546405 -2.58919267 -0.7767578 0 0 Z " fill="#CEBE32" transform="translate(16,4)"/>
</svg>
